<mxfile host="app.diagrams.net" agent="Mozilla/5.0 (Windows NT 10.0; Win64; x64) AppleWebKit/537.36 (KHTML, like Gecko) Chrome/134.0.0.0 Safari/537.36 Edg/134.0.0.0" version="26.1.0">
  <diagram name="Page-1" id="P5rn9Uk0zxHfHdTEoN5u">
    <mxGraphModel dx="1666" dy="781" grid="1" gridSize="10" guides="1" tooltips="1" connect="1" arrows="1" fold="1" page="1" pageScale="1" pageWidth="850" pageHeight="1100" math="0" shadow="0">
      <root>
        <mxCell id="0" />
        <mxCell id="1" parent="0" />
        <mxCell id="Kmdb6VrRyNE-p0R1pzHH-3" style="edgeStyle=orthogonalEdgeStyle;rounded=0;orthogonalLoop=1;jettySize=auto;html=1;entryX=0;entryY=0.5;entryDx=0;entryDy=0;" edge="1" parent="1" source="Kmdb6VrRyNE-p0R1pzHH-1" target="Kmdb6VrRyNE-p0R1pzHH-2">
          <mxGeometry relative="1" as="geometry" />
        </mxCell>
        <mxCell id="Kmdb6VrRyNE-p0R1pzHH-1" value="Image" style="rounded=0;whiteSpace=wrap;html=1;" vertex="1" parent="1">
          <mxGeometry x="280" y="180" width="120" height="60" as="geometry" />
        </mxCell>
        <mxCell id="Kmdb6VrRyNE-p0R1pzHH-5" style="edgeStyle=orthogonalEdgeStyle;rounded=0;orthogonalLoop=1;jettySize=auto;html=1;entryX=0;entryY=0.5;entryDx=0;entryDy=0;" edge="1" parent="1" source="Kmdb6VrRyNE-p0R1pzHH-2" target="Kmdb6VrRyNE-p0R1pzHH-4">
          <mxGeometry relative="1" as="geometry" />
        </mxCell>
        <mxCell id="Kmdb6VrRyNE-p0R1pzHH-2" value="Qwen finetuning" style="rounded=0;whiteSpace=wrap;html=1;" vertex="1" parent="1">
          <mxGeometry x="460" y="180" width="120" height="60" as="geometry" />
        </mxCell>
        <mxCell id="Kmdb6VrRyNE-p0R1pzHH-9" style="edgeStyle=orthogonalEdgeStyle;rounded=0;orthogonalLoop=1;jettySize=auto;html=1;entryX=0;entryY=0.5;entryDx=0;entryDy=0;" edge="1" parent="1" source="Kmdb6VrRyNE-p0R1pzHH-4" target="Kmdb6VrRyNE-p0R1pzHH-7">
          <mxGeometry relative="1" as="geometry" />
        </mxCell>
        <mxCell id="Kmdb6VrRyNE-p0R1pzHH-4" value="caption" style="rounded=0;whiteSpace=wrap;html=1;" vertex="1" parent="1">
          <mxGeometry x="640" y="180" width="120" height="60" as="geometry" />
        </mxCell>
        <mxCell id="Kmdb6VrRyNE-p0R1pzHH-14" style="edgeStyle=orthogonalEdgeStyle;rounded=0;orthogonalLoop=1;jettySize=auto;html=1;entryX=0;entryY=0.5;entryDx=0;entryDy=0;" edge="1" parent="1" source="Kmdb6VrRyNE-p0R1pzHH-7" target="Kmdb6VrRyNE-p0R1pzHH-13">
          <mxGeometry relative="1" as="geometry" />
        </mxCell>
        <mxCell id="Kmdb6VrRyNE-p0R1pzHH-7" value="vecto store" style="rounded=0;whiteSpace=wrap;html=1;" vertex="1" parent="1">
          <mxGeometry x="830" y="180" width="120" height="60" as="geometry" />
        </mxCell>
        <mxCell id="Kmdb6VrRyNE-p0R1pzHH-11" style="edgeStyle=orthogonalEdgeStyle;rounded=0;orthogonalLoop=1;jettySize=auto;html=1;entryX=0.5;entryY=1;entryDx=0;entryDy=0;" edge="1" parent="1" source="Kmdb6VrRyNE-p0R1pzHH-10" target="Kmdb6VrRyNE-p0R1pzHH-7">
          <mxGeometry relative="1" as="geometry" />
        </mxCell>
        <mxCell id="Kmdb6VrRyNE-p0R1pzHH-10" value="Song" style="rounded=0;whiteSpace=wrap;html=1;" vertex="1" parent="1">
          <mxGeometry x="830" y="310" width="120" height="60" as="geometry" />
        </mxCell>
        <mxCell id="Kmdb6VrRyNE-p0R1pzHH-13" value="recommend music" style="rounded=0;whiteSpace=wrap;html=1;" vertex="1" parent="1">
          <mxGeometry x="1020" y="180" width="120" height="60" as="geometry" />
        </mxCell>
      </root>
    </mxGraphModel>
  </diagram>
</mxfile>
